# xmcd
#
# Track frame offsets:
#	150
#	14871
#	27387
#	41127
#	62150
#	79582
#	90902
#	107759
#	119545
#	134121
#
# Disc length: 2018 seconds
#
# Revision: 1
# Processed by: cddbd v1.5.2PL0 Copyright (c) Steve Scherf et al.
# Submitted via: audiograbber 1.83.01
#
DISCID=8b07e00a
DTITLE=diverse - Unsere schönsten Liebeslieder zum Valentinstag
DYEAR=2010
DGENRE=
TTITLE0=Verokina Fischer and Franz Bartsch - In jener Nacht
TTITLE1=Holger Biege - Deine Liebe und mein Lied
TTITLE2=Neoton Familie - Komm, Liebe, komm
TTITLE3=Gaby Rückert - Berührung
TTITLE4=Michael Hirte - Über sieben Brücken musst du gehn
TTITLE5=Aurora Lacasa and Thomas Lück - Das kann nur Liebe sein
TTITLE6=Inka - Ist das Liebe
TTITLE7=Chris Doerk and Frank Schöbel - Lioeb mich so, wie dein Herz es mag
TTITLE8=Thomas Natschinski - Ich lieb dich mehr und mehr
TTITLE9=Karat - Und ich liebe dich
EXTD=
EXTT0=
EXTT1=
EXTT2=
EXTT3=
EXTT4=
EXTT5=
EXTT6=
EXTT7=
EXTT8=
EXTT9=
PLAYORDER=
